<svg xmlns="http://www.w3.org/2000/svg" xmlns:xlink="http://www.w3.org/1999/xlink" width="76" height="78" viewBox="0 0 76 78">
  <defs>
    <path id="icon-self-describing-data-a" d="M60.6521586,10.2317905 C42.6521586,-7.54863177 27.3200407,0.537677283 24.6521586,14.0838212 C21.9842765,27.6299652 -2.79876327,30.3346666 0.261187502,46.3346666 C3.32113827,62.3346666 36.6521586,52.8346666 36.6521586,67.3346666 C36.6521586,81.8346666 75.1895892,81.3346666 75.1895892,62.3346666 C75.1895892,43.3346666 78.6521586,28.0122127 60.6521586,10.2317905 Z"/>
  </defs>
  <g fill="none" fill-rule="evenodd">
    <mask id="icon-self-describing-data-b" fill="#fff">
      <use xlink:href="#icon-self-describing-data-a"/>
    </mask>
    <use fill="#FFF" fill-opacity=".2" xlink:href="#icon-self-describing-data-a"/>
    <g fill="#56A1EE" mask="url(#icon-self-describing-data-b)" opacity=".2">
      <rect width="76" height="78"/>
    </g>
    <g fill-rule="nonzero" transform="translate(14 12)">
      <path fill="#52565C" d="M26.3342311,17.757876 C27.3747642,16.6149504 28.009434,15.1027603 28.009434,13.446281 C28.009434,9.89180165 25.0893019,7 21.5,7 C19.7638255,7 18.1161792,7.66450413 16.8604009,8.87103306 C15.5846604,10.096686 14.8820755,11.7215785 14.8820755,13.446281 C14.8820755,15.0595702 15.497,16.5852975 16.6205283,17.7789339 C12.8619811,19.5824959 10,23.5064545 10,28.1652893 L10,31.3884298 C10,32.2784463 10.7286226,33 11.6273585,33 L31.3726415,33 C32.2713774,33 33,32.2784463 33,31.3884298 L33,28.1652893 C33,23.5323471 30.1562453,19.5711074 26.3342311,17.757876 Z M21.5,10.2231405 C23.2946509,10.2231405 24.754717,11.6690413 24.754717,13.446281 C24.754717,15.2235207 23.2946509,16.6694215 21.5,16.6694215 C19.6769245,16.6694215 18.1367925,15.193438 18.1367925,13.446281 C18.1367925,11.699124 19.6769245,10.2231405 21.5,10.2231405 Z M29.745283,29.7768595 L13.254717,29.7768595 L13.254717,28.1652893 C13.254717,23.6810413 17.0306226,19.892562 21.5,19.892562 C25.9693774,19.892562 29.745283,23.6810413 29.745283,28.1652893 L29.745283,29.7768595 Z"/>
      <path fill="#52565C" d="M42.875,29.75 L42.875,1.640625 C42.875,0.7345625 42.1404375,0 41.234375,0 L12.8434687,0 C11.5287813,0 10.2928437,0.511984375 9.36326563,1.4415625 L1.4415625,9.36326563 C0.511984375,10.2928437 0,11.5287813 0,12.8434687 L0,51.078125 C0,51.9841875 0.7345625,52.71875 1.640625,52.71875 L34.2038594,52.71875 C36.5180156,54.7596875 39.5541563,56 42.875,56 C50.112125,56 56,50.112125 56,42.875 C56,35.637875 50.112125,29.75 42.875,29.75 Z M9.84375,5.60142187 L9.84375,9.84375 L5.60142187,9.84375 L9.84375,5.60142187 Z M3.28125,49.4375 L3.28125,13.125 L11.484375,13.125 C12.3904375,13.125 13.125,12.3904375 13.125,11.484375 L13.125,3.28125 L39.59375,3.28125 L39.59375,30.1652969 C36.1498594,31.0549531 33.2497812,33.31125 31.5084219,36.3184063 C31.469375,36.3156719 31.4304375,36.3125 31.390625,36.3125 L11.484375,36.3125 C10.5783125,36.3125 9.84375,37.0470625 9.84375,37.953125 C9.84375,38.8591875 10.5783125,39.5828125 11.484375,39.5828125 L30.1652969,39.5828125 C29.8942656,40.6319375 29.75,41.7424219 29.75,42.875 L11.484375,42.875 C10.5783125,42.875 9.84375,43.6095625 9.84375,44.515625 C9.84375,45.4216875 10.5783125,46.15625 11.484375,46.15625 L30.1652969,46.15625 C30.4659688,47.3201094 30.9229375,48.421625 31.5119219,49.4375 L3.28125,49.4375 Z M42.875,52.71875 C37.4471563,52.71875 33.03125,48.3028437 33.03125,42.875 C33.03125,37.4471563 37.4471563,33.03125 42.875,33.03125 C48.3028437,33.03125 52.71875,37.4471563 52.71875,42.875 C52.71875,48.3028437 48.3028437,52.71875 42.875,52.71875 Z"/>
      <path fill="#6A44FF" d="M49.5240375,38.4881507 C48.8895292,37.8372646 47.8605792,37.8372646 47.2260708,38.4882619 L41.8750542,43.9763501 L39.7740375,41.8215813 C39.1395292,41.1706951 38.1105792,41.1706951 37.4759625,41.8215813 C36.8413458,42.4724675 36.8413458,43.5276853 37.4759625,44.1785715 L40.7259625,47.5118909 C41.0432708,47.837334 41.4591625,48 41.8750542,48 C42.2909458,48 42.7068375,47.837334 43.0240375,47.5117798 L49.5240375,40.8451409 C50.1586542,40.1942547 50.1586542,39.1390369 49.5240375,38.4881507 Z"/>
    </g>
  </g>
</svg>
