<svg xmlns="http://www.w3.org/2000/svg" xmlns:xlink="http://www.w3.org/1999/xlink" width="80" height="78" viewBox="0 0 80 78">
  <defs>
    <path id="icon-community-a" d="M60.6521586,10.2317905 C42.6521586,-7.54863177 27.3200407,0.537677283 24.6521586,14.0838212 C21.9842765,27.6299652 -2.79876327,30.3346666 0.261187502,46.3346666 C3.32113827,62.3346666 36.6521586,52.8346666 36.6521586,67.3346666 C36.6521586,81.8346666 75.1895892,81.3346666 75.1895892,62.3346666 C75.1895892,43.3346666 78.6521586,28.0122127 60.6521586,10.2317905 Z"/>
  </defs>
  <g fill="none" fill-rule="evenodd">
    <mask id="icon-community-b" fill="#fff">
      <use xlink:href="#icon-community-a"/>
    </mask>
    <use fill="#FFF" fill-opacity=".2" xlink:href="#icon-community-a"/>
    <g fill="#56A1EE" mask="url(#icon-community-b)" opacity=".2">
      <rect width="76" height="78"/>
    </g>
    <g fill-rule="nonzero" transform="translate(4 10)">
      <path fill="#52565C" d="M11.2767857 34L23.7232143 34C24.9806071 34 26 33.1045333 26 32 26 30.8954667 24.9806071 30 23.7232143 30L11.2767857 30C10.0193929 30 9 30.8954667 9 32 9 33.1045333 10.0193929 34 11.2767857 34zM34.7777778 39L11.2222222 39C9.99496296 39 9 39.8954667 9 41 9 42.1045333 9.99496296 43 11.2222222 43L34.7777778 43C36.005037 43 37 42.1045333 37 41 37 39.8954667 36.005037 39 34.7777778 39z"/>
      <path fill="#52565C" d="M70.8046875,0 L35.328125,0 C32.4634297,0 30.1328125,2.34900344 30.1328125,5.23629835 L30.1328125,19.2994996 L5.1953125,19.2994996 C2.33061719,19.2994996 0,21.6485031 0,24.535798 L0,48.3235534 C0,51.2108483 2.33061719,53.5598517 5.1953125,53.5598517 L10.8359375,53.5598517 L10.8359375,59.2530545 C10.8359375,60.7370215 11.6682266,62.041159 13.0081719,62.6566484 C13.5098906,62.8870456 14.0371406,63 14.5588984,63 C15.4305234,63 16.2867109,62.6847748 16.9816953,62.0757185 L26.6994531,53.5600013 L40.671875,53.5600013 C43.5365703,53.5600013 45.8671875,51.2109979 45.8671875,48.323703 L45.8671875,34.2605017 L49.3005469,34.2605017 L59.0183047,42.7762189 C59.7135859,43.3854248 60.5694766,43.7005004 61.4411016,43.7005004 C61.9628594,43.7005004 62.4902578,43.5875459 62.9918281,43.3571488 C64.331625,42.7418089 65.1640625,41.4376714 65.1640625,39.9535549 L65.1640625,34.2603521 L70.8046875,34.2603521 C73.6693828,34.2603521 76,31.9113486 76,29.0240537 L76,5.23629835 C76,2.34885383 73.6693828,0 70.8046875,0 Z M73.0664062,30.5146027 C73.0664062,30.9536135 72.706085,31.3107775 72.2631934,31.3107775 L63.7491372,31.3107775 C62.4183741,31.3107775 61.3394986,32.3801995 61.3394986,33.699302 L61.3394986,40.4002277 L51.4729926,31.8969214 C51.034599,31.5190568 50.4729926,31.3109367 49.8919484,31.3109367 L33.8696191,31.3109367 C33.4267275,31.3109367 33.0664062,30.9537727 33.0664062,30.5147619 L33.0664062,4.19640256 C33.0664062,3.75739176 33.4267275,3.40022774 33.8696191,3.40022774 L72.2631934,3.40022774 C72.706085,3.40022774 73.0664062,3.75739176 73.0664062,4.19640256 L73.0664062,30.5146027 Z M42.1303809,50.6102522 L26.1080516,50.6102522 C25.5270074,50.6102522 24.9655616,50.8183713 24.5270074,51.1962342 L14.6605014,59.699503 L14.6605014,52.9986068 C14.6605014,51.6795102 13.5816259,50.6100929 12.2508628,50.6100929 L3.7368066,50.6100929 C3.29391504,50.6100929 2.93359375,50.2529305 2.93359375,49.8139216 L2.93359375,23.4956743 C2.93359375,23.0566654 3.29391504,22.699503 3.7368066,22.699503 L30.7247584,22.699503 L30.7247584,28.2727021 C30.7247584,31.3457641 33.2470074,33.8459012 36.3472484,33.8459012 L42.9335938,33.8459012 L42.9335938,49.8139216 C42.9335938,50.2530897 42.5732725,50.6102522 42.1303809,50.6102522 Z"/>
      <path fill="#6A44FF" d="M41.2767857 15L53.7232143 15C54.9806071 15 56 14.1045333 56 13 56 11.8954667 54.9806071 11 53.7232143 11L41.2767857 11C40.0193929 11 39 11.8954667 39 13 39 14.1045333 40.0193929 15 41.2767857 15zM64.7777778 20L41.2222222 20C39.994963 20 39 20.8954667 39 22 39 23.1045333 39.994963 24 41.2222222 24L64.7777778 24C66.005037 24 67 23.1045333 67 22 67 20.8954667 66.005037 20 64.7777778 20z"/>
    </g>
  </g>
</svg>
