<svg xmlns="http://www.w3.org/2000/svg" xmlns:xlink="http://www.w3.org/1999/xlink" width="76" height="78" viewBox="0 0 76 78">
  <defs>
    <path id="icon-effcient-threading-a" d="M60.6521586,10.2317905 C42.6521586,-7.54863177 27.3200407,0.537677283 24.6521586,14.0838212 C21.9842765,27.6299652 -2.79876327,30.3346666 0.261187502,46.3346666 C3.32113827,62.3346666 36.6521586,52.8346666 36.6521586,67.3346666 C36.6521586,81.8346666 75.1895892,81.3346666 75.1895892,62.3346666 C75.1895892,43.3346666 78.6521586,28.0122127 60.6521586,10.2317905 Z"/>
  </defs>
  <g fill="none" fill-rule="evenodd">
    <mask id="icon-effcient-threading-b" fill="#fff">
      <use xlink:href="#icon-effcient-threading-a"/>
    </mask>
    <use fill="#FFF" fill-opacity=".2" xlink:href="#icon-effcient-threading-a"/>
    <g fill="#56A1EE" mask="url(#icon-effcient-threading-b)" opacity=".2">
      <rect width="76" height="78"/>
    </g>
    <g stroke-linecap="round" stroke-linejoin="round" stroke-width="3" transform="translate(10 11)">
      <path stroke="#52565C" d="M17.8074207,23.2123862 L18.2901793,25.1434207 C19.674731,30.6796966 23.9963862,34.9994207 29.530731,36.3839724 L31.4617655,36.866731 L43.4225931,24.9059034 C49.8104552,18.5180414 53.7574897,10.0929379 54.5743172,1.09431724 L54.674731,-0.000579310345 L53.5798345,0.0998344828 C44.5812138,0.918593103 36.1561103,4.86369655 29.7663172,11.2534897 L17.8074207,23.2123862 Z"/>
      <path stroke="#52565C" d="M39.4937103,4.17644138 C40.032469,6.10747586 41.2509517,8.42471724 43.7516414,10.9234759 C46.1692966,13.3430621 48.4170207,14.5615448 50.3132966,15.1273379"/>
      <line x1="26.801" x2="12.913" y1="27.874" y2="41.762" stroke="#52565C"/>
      <path stroke="#52565C" d="M25.8982621 15.1215448L20.236469 14.4398897C16.1175724 13.9436138 11.9986759 15.3667862 9.06350345 18.3019586L.0571586207 27.3102345C.0571586207 27.3102345 10.9810207 24.5778207 17.8072276 23.2125793L25.8982621 15.1215448zM39.5522207 28.776469L40.2358069 34.4382621C40.7301517 38.5571586 39.3069793 42.6760552 36.3737379 45.6112276L27.3654621 54.6175724C27.3654621 54.6175724 30.0978759 43.6937103 31.4631172 36.8675034L39.5522207 28.776469zM38.2887448 21.8471448C36.7825379 23.3552828 34.3359172 23.3552828 32.8277793 21.8471448 31.3196414 20.3390069 31.3196414 17.8943172 32.8277793 16.3842483 34.3359172 14.8780414 36.7825379 14.8780414 38.2887448 16.3842483 39.7968828 17.8943172 39.7968828 20.3390069 38.2887448 21.8471448z"/>
      <path stroke="#6A44FF" d="M25.1034483,41.1574897 C25.1034483,41.1574897 19.3103448,54.674731 0,54.674731 C0,35.3643862 13.5172414,29.5712828 13.5172414,29.5712828"/>
    </g>
  </g>
</svg>
